<svg id="visual" viewBox="0 0 900 600" width="900" height="600" xmlns="http://www.w3.org/2000/svg" xmlns:xlink="http://www.w3.org/1999/xlink" version="1.1"><path d="M0 163L13.7 174C27.3 185 54.7 207 82 214C109.3 221 136.7 213 163.8 206C191 199 218 193 245.2 193C272.3 193 299.7 199 327 191C354.3 183 381.7 161 409 150C436.3 139 463.7 139 491 131C518.3 123 545.7 107 573 102C600.3 97 627.7 103 654.8 117C682 131 709 153 736.2 168C763.3 183 790.7 191 818 195C845.3 199 872.7 199 886.3 199L900 199L900 0L886.3 0C872.7 0 845.3 0 818 0C790.7 0 763.3 0 736.2 0C709 0 682 0 654.8 0C627.7 0 600.3 0 573 0C545.7 0 518.3 0 491 0C463.7 0 436.3 0 409 0C381.7 0 354.3 0 327 0C299.7 0 272.3 0 245.2 0C218 0 191 0 163.8 0C136.7 0 109.3 0 82 0C54.7 0 27.3 0 13.7 0L0 0Z" fill="#3970bc"></path><path d="M0 289L13.7 293C27.3 297 54.7 305 82 308C109.3 311 136.7 309 163.8 330C191 351 218 395 245.2 406C272.3 417 299.7 395 327 384C354.3 373 381.7 373 409 360C436.3 347 463.7 321 491 319C518.3 317 545.7 339 573 342C600.3 345 627.7 329 654.8 338C682 347 709 381 736.2 378C763.3 375 790.7 335 818 330C845.3 325 872.7 355 886.3 370L900 385L900 197L886.3 197C872.7 197 845.3 197 818 193C790.7 189 763.3 181 736.2 166C709 151 682 129 654.8 115C627.7 101 600.3 95 573 100C545.7 105 518.3 121 491 129C463.7 137 436.3 137 409 148C381.7 159 354.3 181 327 189C299.7 197 272.3 191 245.2 191C218 191 191 197 163.8 204C136.7 211 109.3 219 82 212C54.7 205 27.3 183 13.7 172L0 161Z" fill="#245dac"></path><path d="M0 397L13.7 395C27.3 393 54.7 389 82 388C109.3 387 136.7 389 163.8 406C191 423 218 455 245.2 464C272.3 473 299.7 459 327 451C354.3 443 381.7 441 409 428C436.3 415 463.7 391 491 394C518.3 397 545.7 427 573 435C600.3 443 627.7 429 654.8 434C682 439 709 463 736.2 451C763.3 439 790.7 391 818 384C845.3 377 872.7 411 886.3 428L900 445L900 383L886.3 368C872.7 353 845.3 323 818 328C790.7 333 763.3 373 736.2 376C709 379 682 345 654.8 336C627.7 327 600.3 343 573 340C545.7 337 518.3 315 491 317C463.7 319 436.3 345 409 358C381.7 371 354.3 371 327 382C299.7 393 272.3 415 245.2 404C218 393 191 349 163.8 328C136.7 307 109.3 309 82 306C54.7 303 27.3 295 13.7 291L0 287Z" fill="#034b9b"></path><path d="M0 511L13.7 518C27.3 525 54.7 539 82 543C109.3 547 136.7 541 163.8 542C191 543 218 551 245.2 546C272.3 541 299.7 523 327 516C354.3 509 381.7 513 409 516C436.3 519 463.7 521 491 525C518.3 529 545.7 535 573 540C600.3 545 627.7 549 654.8 550C682 551 709 549 736.2 540C763.3 531 790.7 515 818 518C845.3 521 872.7 543 886.3 554L900 565L900 443L886.3 426C872.7 409 845.3 375 818 382C790.7 389 763.3 437 736.2 449C709 461 682 437 654.8 432C627.7 427 600.3 441 573 433C545.7 425 518.3 395 491 392C463.7 389 436.3 413 409 426C381.7 439 354.3 441 327 449C299.7 457 272.3 471 245.2 462C218 453 191 421 163.8 404C136.7 387 109.3 385 82 386C54.7 387 27.3 391 13.7 393L0 395Z" fill="#004186"></path><path d="M0 601L13.7 601C27.3 601 54.7 601 82 601C109.3 601 136.7 601 163.8 601C191 601 218 601 245.2 601C272.3 601 299.7 601 327 601C354.3 601 381.7 601 409 601C436.3 601 463.7 601 491 601C518.3 601 545.7 601 573 601C600.3 601 627.7 601 654.8 601C682 601 709 601 736.2 601C763.3 601 790.7 601 818 601C845.3 601 872.7 601 886.3 601L900 601L900 563L886.3 552C872.7 541 845.3 519 818 516C790.7 513 763.3 529 736.2 538C709 547 682 549 654.8 548C627.7 547 600.3 543 573 538C545.7 533 518.3 527 491 523C463.7 519 436.3 517 409 514C381.7 511 354.3 507 327 514C299.7 521 272.3 539 245.2 544C218 549 191 541 163.8 540C136.7 539 109.3 545 82 541C54.7 537 27.3 523 13.7 516L0 509Z" fill="#003872"></path></svg>